
<svg width="193px" height="99px" viewBox="0 0 193 99" version="1.1" xmlns="http://www.w3.org/2000/svg" xmlns:xlink="http://www.w3.org/1999/xlink">
    <!-- Generator: Sketch 46.2 (44496) - http://www.bohemiancoding.com/sketch -->
    <desc>Created with Sketch.</desc>
    <defs></defs>
    <g id="Page-1" stroke="none" stroke-width="1" fill="none" fill-rule="evenodd">
        <g id="deinternetjongens" fill-rule="nonzero">
            <rect id="Rectangle-path" fill="#231F20" x="0" y="0" width="192.97" height="98.38"></rect>
            <polygon id="Shape" fill="#EE2D38" points="96.18 72.7 87.18 63.7 125.79 25.09 134.79 34.09"></polygon>
            <path d="M76.49,48.87 C76.5432558,52.6089615 75.863804,56.3221656 74.49,59.8 C73.1867594,63.0500554 71.2296245,65.9976706 68.74,68.46 C66.1818983,70.952314 63.1389789,72.8924304 59.8,74.16 C56.0924768,75.5463952 52.1577293,76.2247999 48.2,76.16 L26.95,76.16 L26.95,21.58 L48.16,21.58 C52.1220075,21.5286188 56.0579423,22.2275866 59.76,23.64 C63.0935453,24.918372 66.1343975,26.8571704 68.7,29.34 C71.193628,31.7990326 73.1513514,34.7475342 74.45,38 C75.8320164,41.4557279 76.5250169,45.1483339 76.49,48.87 Z M63.49,48.87 C63.538677,46.396166 63.2012905,43.9298712 62.49,41.56 C61.8754161,39.5322739 60.8547157,37.650783 59.49,36.03 C58.1712552,34.515946 56.5221269,33.3252891 54.67,32.55 C52.6152692,31.7074768 50.4104387,31.2923698 48.19,31.33 L39.69,31.33 L39.69,66.45 L48.16,66.45 C50.3804625,66.4879105 52.585349,66.0727929 54.64,65.23 C56.4921269,64.4547109 58.1412552,63.264054 59.46,61.75 C60.8244843,60.1290592 61.8451576,58.2476181 62.46,56.22 C63.193803,53.8401201 63.5514453,51.3602423 63.52,48.87 L63.49,48.87 Z" id="Shape" fill="#FFFFFF"></path>
            <path d="M153.36,21.58 L153.36,56.67 C153.388665,58.2552763 153.237703,59.8386995 152.91,61.39 C152.680896,62.5030284 152.221006,63.5556666 151.56,64.48 C150.981874,65.2501847 150.193628,65.837028 149.29,66.17 C148.262013,66.5284021 147.178469,66.7010919 146.09,66.68 C145.575283,66.68249 145.060923,66.65243 144.55,66.59 L144.55,76.69 C145.55,76.76 146.47,76.8 147.44,76.8 C150.24836,76.863955 153.040751,76.3605764 155.65,75.32 C157.877384,74.4027168 159.859961,72.9782747 161.44,71.16 C163.026325,69.2810521 164.201552,67.0907018 164.89,64.73 C165.669875,62.0234983 166.043947,59.2162787 166,56.4 L166,21.58 L153.36,21.58 Z" id="Shape" fill="#FFFFFF"></path>
        </g>
    </g>
</svg>
